<svg xmlns="http://www.w3.org/2000/svg" viewBox="0 0 724 724" width="200" height="200"><style>tspan { white-space:pre }.shp0 { fill: #ed6d0e } .shp1 { fill: #fff0e1;stroke: #e47522;stroke-width: 7 } .shp2 { fill: #e47522 } .shp3 { fill: #f78c3b } .shp4 { fill: #000000 } </style><g ><path class="shp0" d="M392.04 223.28L427.82 223.29L427.79 293.29L392 293.28L392.04 223.28Z" /><path class="shp0" d="M438.04 192.28L473.82 192.29L473.79 262.29L438 262.28L438.04 192.28Z" /><path class="shp0" d="M484.87 122.3L520 122.31L519.92 262.31L484.8 262.3L484.87 122.3Z" /><path class="shp0" d="M530.89 92.31L566 92.32L565.91 262.32L530.8 262.31L530.89 92.31Z" /><path class="shp0" d="M576.85 162.32L612 162.33L611.95 262.33L576.8 262.32L576.85 162.32Z" /><path class="shp0" d="M622.85 239.32L658 239.33L657.95 362L622.8 361.99L622.85 239.32Z" /></g><g ><path class="shp0" d="M285.96 192.28L250.18 192.29L250.21 262.29L286 262.28L285.96 192.28Z" /><path class="shp0" d="M332.96 223.28L297.18 223.29L297.21 293.29L333 293.28L332.96 223.28Z" /><path class="shp0" d="M239.13 122.3L204 122.31L204.08 262.31L239.2 262.3L239.13 122.3Z" /><path class="shp0" d="M193.11 92.31L158 92.32L158.09 262.32L193.2 262.31L193.11 92.31Z" /><path class="shp0" d="M147.15 162.32L112 162.33L112.05 262.33L147.2 262.32L147.15 162.32Z" /><path class="shp0" d="M101.15 239.32L66 239.33L66.05 362L101.2 361.99L101.15 239.32Z" /></g><path class="shp1" d="M112 362L37 502L322 638L112 362Z" /><path class="shp1" d="M612 362L687 502L402 636L612 362Z" /><path class="shp2" d="M362 662C322 662 162 502 162 502L13 462L112 262L362 232L612 262L712 462L562 502C562 502 402 662 362 662Z" /><path class="shp3" d="M362 662L402 442L612 262L362 232L112 262L322 442L362 662Z" /><path class="shp4" d="M288.16 445.22C287.53 444.4 286.83 443.82 286.06 443.46L240.91 422.5C240.14 422.14 239.54 422.12 239.12 422.45C238.69 422.78 238.56 423.36 238.71 424.19L239.33 456.04L282.63 489.45C282.78 490.29 283.17 491.11 283.81 491.93C284.44 492.75 285.14 493.33 285.91 493.69L296.01 498.38C296.78 498.74 297.38 498.75 297.8 498.43C298.22 498.1 298.36 497.52 298.21 496.68L289.34 447.7C289.19 446.86 288.79 446.04 288.16 445.22Z" /><path class="shp4" d="M437.76 445.22C438.39 444.4 439.09 443.82 439.86 443.46L485.01 422.5C485.78 422.14 486.38 422.12 486.8 422.45C487.22 422.78 487.36 423.36 487.21 424.19L486.59 456.04L443.29 489.45C443.14 490.29 442.74 491.11 442.11 491.93C441.48 492.75 440.78 493.33 440.01 493.69L429.91 498.38C429.14 498.74 428.54 498.75 428.12 498.43C427.69 498.1 427.56 497.52 427.71 496.68L436.58 447.7C436.73 446.86 437.13 446.04 437.76 445.22Z" /><path class="shp4" d="M393 632L362 661L331 632L393 632Z" /></svg>